Y9_100_1_ground_reaction
inDegrees=no
nColumns=28
nRows=59
DataType=double
version=3
OpenSimVersion=4.0
endheader
time	ground_force_1_vx	ground_force_1_vy	ground_force_1_vz	ground_force_1_px	ground_force_1_py	ground_force_1_pz	ground_torque_1_x	ground_torque_1_y	ground_torque_1_z	ground_force_2_vx	ground_force_2_vy	ground_force_2_vz	ground_force_2_px	ground_force_2_py	ground_force_2_pz	ground_torque_2_x	ground_torque_2_y	ground_torque_2_z	ground_force_3_vx	ground_force_3_vy	ground_force_3_vz	ground_force_3_px	ground_force_3_py	ground_force_3_pz	ground_torque_3_x	ground_torque_3_y	ground_torque_3_z
1.931	0	0	-0	-0.3027	0	-0.2	0	0	-0	6.4	45.69	0.39	0.5731000000000001	0	-0.13743	0	0.07226	-0	-112.56	679.23	56.29	1.04429	0	-0.27402	0	0.93304	-0
1.9315	0	0	-0	-0.3027	0	-0.2	0	0	-0	5.65	44.26	0.75	0.573	0	-0.14144	0	0.1617	-0	-112.55	680.62	56.64	1.04453	0	-0.27385	0	0.94123	-0
1.932	0	0	-0	-0.3027	0	-0.2	0	0	-0	4.91	42.83	0.38	0.57282	0	-0.13981	0	0.09378	-0	-112.55	682.01	57	1.04477	0	-0.27388	0	1.07507	-0
1.9325	0	0	-0	-0.3027	0	-0.2	0	0	-0	4.54	42.83	0.01	0.5681900000000001	0	-0.1435	0	0.03083	-0	-112.55	682.02	56.65	1.04504	0	-0.2739	0	1.18738	-0
1.933	0	0	-0	-0.3027	0	-0.2	0	0	-0	3.79	41.41	-0.37	0.56784	0	-0.1419	0	0.04275	-0	-112.54	683.42	56.3	1.04501	0	-0.27397	0	1.12628	-0
1.9335	0	0	-0	-0.3027	0	-0.2	0	0	-0	3.04	39.97	-0.01	0.57208	0	-0.13935	0	0.17322	-0	-112.52	686.1900000000001	56.66	1.04521	0	-0.27364	0	1.14935	-0
1.934	0	0	-0	-0.3027	0	-0.2	0	0	-0	2.3	38.54	-0.01	0.5718799999999999	0	-0.14075	0	0.14123	-0	-112.88	686.2	56.3	1.04545	0	-0.27366	0	1.00756	-0
1.9345	0	0	-0	-0.3027	0	-0.2	0	0	-0	1.93	37.12	-0.39	0.5769500000000001	0	-0.13887	0	0.05652	-0	-112.88	687.59	57.01	1.04569	0	-0.27388	0	1.17053	-0
1.935	0	0	-0	-0.3027	0	-0.2	0	0	-0	1.19	37.11	-0.39	0.56626	0	-0.13881	0	-0.05256	-0	-112.87	690.36	57.02	1.04537	0	-0.27358	0	1.33426	-0
1.9355	0	0	-0	-0.3027	0	-0.2	0	0	-0	0.82	34.26	-1.14	0.58258	0	-0.13463	0	-0.09317	-0	-112.51	690.38	56.67	1.04591	0	-0.2738	0	1.31839	-0
1.936	0	0	-0	-0.3027	0	-0.2	0	0	-0	0.44	34.26	-1.14	0.57685	0	-0.13877	0	0.01531	-0	-113.2	693.15	56.31	1.04555	0	-0.27372	0	1.04776	-0
1.9365	0	0	-0	-0.3027	0	-0.2	0	0	-0	0.07000000000000001	32.83	-1.51	0.57726	0	-0.13657	0	-0.06520999999999999	-0	-113.55	695.9400000000001	56.31	1.04573	0	-0.27362	0	1.03916	-0
1.937	0	0	-0	-0.3027	0	-0.2	0	0	-0	-0.67	32.83	-1.14	0.56526	0	-0.14036	0	0.01418	-0	-113.18	695.95	56.32	1.04626	0	-0.27362	0	1.09888	-0
1.9375	0	0	-0	-0.3027	0	-0.2	0	0	-0	-0.68	29.97	-1.15	0.5843700000000001	0	-0.13466	0	-0.07948999999999999	-0	-113.19	697.34	56.32	1.04624	0	-0.27367	0	1.31417	-0
1.938	0	0	-0	-0.3027	0	-0.2	0	0	-0	-1.05	29.97	-1.52	0.5777599999999999	0	-0.13518	0	-0.07471999999999999	-0	-112.82	698.73	56.68	1.04649	0	-0.2737	0	1.40316	-0
1.9385	0	0	-0	-0.3027	0	-0.2	0	0	-0	-1.42	28.55	-1.52	0.57836	0	-0.13691	0	0.02302	-0	-112.81	700.12	56.68	1.04671	0	-0.27355	0	1.28333	-0
1.939	0	0	-0	-0.3027	0	-0.2	0	0	-0	-2.17	27.12	-1.53	0.59184	0	-0.13874	0	0.04146	-0	-113.15	702.9	56.33	1.04663	0	-0.27348	0	1.20633	-0
1.9395	0	0	-0	-0.3027	0	-0.2	0	0	-0	-2.54	27.12	-1.53	0.57782	0	-0.13346	0	0.09756000000000001	-0	-113.5	704.3	55.97	1.04657	0	-0.27355	0	1.11496	-0
1.94	0	0	-0	-0.3027	0	-0.2	0	0	-0	-3.28	25.69	-1.91	0.59192	0	-0.13028	0	-0.05324	-0	-113.14	705.6900000000001	55.98	1.04682	0	-0.2736	0	1.30003	-0
1.9405	0	0	-0	-0.3027	0	-0.2	0	0	-0	-4.02	25.68	-1.91	0.5836399999999999	0	-0.13574	0	-0.0116	-0	-113.13	708.47	56.34	1.04676	0	-0.27328	0	1.45638	-0
1.941	0	0	-0	-0.3027	0	-0.2	0	0	-0	-4.03	24.26	-1.91	0.5853200000000001	0	-0.13199	0	0.0795	-0	-113.12	708.47	56.34	1.04727	0	-0.27348	0	1.2389	-0
1.9415	0	0	-0	-0.3027	0	-0.2	0	0	-0	0	0	-0	0.3	0	-0.2	0	0	-0	-112.75	711.24	56.34	1.04722	0	-0.27359	0	1.25123	-0
1.942	0	0	-0	-0.3027	0	-0.2	0	0	-0	-4.77	22.83	-2.29	0.5936900000000001	0	-0.12833	0	-0.05774	-0	-113.1	712.64	56.34	1.04717	0	-0.27344	0	1.2357	-0
1.9425	0	0	-0	-0.3027	0	-0.2	0	0	-0	-5.51	22.83	-2.3	0.5843400000000001	0	-0.13446	0	-0.09838	-0	-113.09	715.42	56.35	1.04711	0	-0.27335	0	1.39048	-0
1.943	0	0	-0	-0.3027	0	-0.2	0	0	-0	-6.26	21.39	-1.93	0.5848300000000001	0	-0.12922	0	0.00632	-0	-112.72	716.8200000000001	56	1.0476	0	-0.27322	0	1.40996	-0
1.9435	0	0	-0	-0.3027	0	-0.2	0	0	-0	-6.26	21.4	-2.3	0.5933200000000001	0	-0.12998	0	0.03155	-0	-112.35	719.59	56	1.04731	0	-0.27313	0	1.3556	-0
1.944	0	0	-0	-0.3027	0	-0.2	0	0	-0	-7	21.39	-2.68	0.57482	0	-0.13732	0	-0.02967	-0	-112.34	720.97	56.36	1.04753	0	-0.27316	0	1.33996	-0
1.9445	0	0	-0	-0.3027	0	-0.2	0	0	-0	-7	19.97	-2.68	0.58531	0	-0.13997	0	-0.1524	-0	-112.32	722.38	55.66	1.04799	0	-0.27305	0	1.3505	-0
1.945	0	0	-0	-0.3027	0	-0.2	0	0	-0	-7.74	19.96	-2.68	0.57456	0	-0.1327	0	-0.10462	-0	-112.32	725.16	55.66	1.04768	0	-0.27296	0	1.41591	-0
1.9455	0	0	-0	-0.3027	0	-0.2	0	0	-0	-8.109999999999999	18.54	-3.06	0.5849500000000001	0	-0.13602	0	-0.24029	-0	-111.96	725.16	55.66	1.04795	0	-0.27335	0	1.48982	-0
1.946	0	0	-0	-0.3027	0	-0.2	0	0	-0	-8.49	18.53	-2.69	0.5744	0	-0.13511	0	0.00013	-0	-111.58	727.9299999999999	55.66	1.04765	0	-0.27326	0	1.36094	-0
1.9465	0	0	-0	-0.3027	0	-0.2	0	0	-0	-8.119999999999999	17.11	-2.69	0.59815	0	-0.12975	0	-0.04136	-0	-111.56	729.33	54.95	1.04786	0	-0.27335	0	1.18531	-0
1.947	0	0	-0	-0.3027	0	-0.2	0	0	-0	-8.119999999999999	17.11	-2.69	0.58749	0	-0.12976	0	-0.08968000000000001	-0	-111.55	732.11	54.96	1.0478	0	-0.27307	0	1.2123	-0
1.9475	0	0	-0	-0.3027	0	-0.2	0	0	-0	0	0	-0	0.3	0	-0.2	0	0	-0	-111.19	733.5	54.96	1.04803	0	-0.27312	0	1.32188	-0
1.948	0	0	-0	-0.3027	0	-0.2	0	0	-0	0	0	-0	0.3	0	-0.2	0	0	-0	-110.45	736.28	54.97	1.04801	0	-0.27284	0	1.40725	-0
1.9485	0	0	-0	-0.3027	0	-0.2	0	0	-0	-7.76	12.83	-2.31	0.59957	0	-0.12744	0	-0.08934	-0	-110.08	737.66	55.33	1.04824	0	-0.27307	0	1.32461	-0
1.949	0	0	-0	-0.3027	0	-0.2	0	0	-0	-7.01	12.83	-2.3	0.5879500000000001	0	-0.13879	0	-0.11304	-0	-109.72	739.04	55.33	1.04823	0	-0.27293	0	1.36708	-0
1.9495	0	0	-0	-0.3027	0	-0.2	0	0	-0	-6.65	11.4	-1.93	0.59351	0	-0.12985	0	0.02302	-0	-109.7	741.83	54.98	1.04816	0	-0.27286	0	1.31825	-0
1.95	0	0	-0	-0.3027	0	-0.2	0	0	-0	0	0	-0	0.3	0	-0.2	0	0	-0	-109.33	743.22	54.99	1.04839	0	-0.27291	0	1.42767	-0
1.9505	0	0	-0	-0.3027	0	-0.2	0	0	-0	0	0	-0	0.3	0	-0.2	0	0	-0	-108.96	746	54.64	1.04811	0	-0.27284	0	1.46915	-0
1.951	0	0	-0	-0.3027	0	-0.2	0	0	-0	0	0	-0	0.3	0	-0.2	0	0	-0	-108.6	747.39	54.64	1.04833	0	-0.27289	0	1.50383	-0
1.9515	0	0	-0	-0.3027	0	-0.2	0	0	-0	0	0	-0	0.3	0	-0.2	0	0	-0	-108.23	748.77	55	1.04832	0	-0.27293	0	1.42901	-0
1.952	0	0	-0	-0.3027	0	-0.2	0	0	-0	0	0	-0	0.3	0	-0.2	0	0	-0	-107.86	750.16	54.65	1.04854	0	-0.27281	0	1.43112	-0
1.9525	0	0	-0	-0.3027	0	-0.2	0	0	-0	0	0	-0	0.3	0	-0.2	0	0	-0	-107.13	751.5599999999999	54.3	1.04879	0	-0.27306	0	1.49573	-0
1.953	0	0	-0	-0.3027	0	-0.2	0	0	-0	0	0	-0	0.3	0	-0.2	0	0	-0	-107.12	754.34	54.31	1.04872	0	-0.27279	0	1.52042	-0
1.9535	0	0	-0	-0.3027	0	-0.2	0	0	-0	0	0	-0	0.3	0	-0.2	0	0	-0	-106.38	755.73	53.96	1.0492	0	-0.27286	0	1.4694	-0
1.954	0	0	-0	-0.3027	0	-0.2	0	0	-0	0	0	-0	0.3	0	-0.2	0	0	-0	-106.01	758.49	54.31	1.04845	0	-0.27257	0	1.46188	-0
1.9545	0	0	-0	-0.3027	0	-0.2	0	0	-0	0	0	-0	0.3	0	-0.2	0	0	-0	-105.65	758.5	54.32	1.04894	0	-0.27257	0	1.51775	-0
1.955	0	0	-0	-0.3027	0	-0.2	0	0	-0	0	0	-0	0.3	0	-0.2	0	0	-0	-104.92	761.28	54.33	1.04915	0	-0.27249	0	1.66793	-0
1.9555	0	0	-0	-0.3027	0	-0.2	0	0	-0	0	0	-0	0.3	0	-0.2	0	0	-0	-104.56	761.28	53.98	1.04916	0	-0.27269	0	1.62377	-0
1.956	0	0	-0	-0.3027	0	-0.2	0	0	-0	0	0	-0	0.3	0	-0.2	0	0	-0	-103.82	764.0599999999999	53.63	1.04913	0	-0.27245	0	1.57746	-0
1.9565	0	0	-0	-0.3027	0	-0.2	0	0	-0	0	0	-0	0.3	0	-0.2	0	0	-0	-103.8	768.22	53.63	1.0488	0	-0.27241	0	1.48539	-0
1.957	0	0	-0	-0.3027	0	-0.2	0	0	-0	0	0	-0	0.3	0	-0.2	0	0	-0	-103.44	766.83	53.99	1.04932	0	-0.27271	0	1.48848	-0
1.9575	0	0	-0	-0.3027	0	-0.2	0	0	-0	0	0	-0	0.3	0	-0.2	0	0	-0	-103.07	769.6	53.99	1.04904	0	-0.27263	0	1.58291	-0
1.958	0	0	-0	-0.3027	0	-0.2	0	0	-0	0	0	-0	0.3	0	-0.2	0	0	-0	-102.35	769.62	53.29	1.04954	0	-0.27267	0	1.56027	-0
1.9585	0	0	-0	-0.3027	0	-0.2	0	0	-0	0	0	-0	0.3	0	-0.2	0	0	-0	-101.97	772.39	53.3	1.04949	0	-0.27258	0	1.59294	-0
1.959	0	0	-0	-0.3027	0	-0.2	0	0	-0	0	0	-0	0.3	0	-0.2	0	0	-0	-101.6	775.17	53.3	1.04944	0	-0.27232	0	1.5698	-0
1.9595	0	0	-0	-0.3027	0	-0.2	0	0	-0	0	0	-0	0.3	0	-0.2	0	0	-0	-100.87	775.16	53.3	1.04971	0	-0.27268	0	1.52858	-0
1.96	0	0	-0	-0.3027	0	-0.2	0	0	-0	0	0	-0	0.3	0	-0.2	0	0	-0	-100.5	779.3200000000001	53.31	1.0494	0	-0.27229	0	1.65257	-0
